# xmcd
# 
# Track frame offsets:
#     150
#     17354
#     33199
#     45722
#     63224
#     84542
#     100290
#     111684
#     128163
#     145096
# 
# Disc length: 2114
# 
# Revision: 0
# Processed by: cddbd v1.5.2PL0 Copyright (c) Steve Scherf et al.
# Submitted via: fre:ac v1.0.31
# 
DISCID=7f08400a
DTITLE=NeverMind - NeverMind
DYEAR=1010
DGENRE=Country
TTITLE0=The Bug
TTITLE1=To Late To Worry
TTITLE2=Rodeo
TTITLE3=Route 66
TTITLE4=Bobby McGee
TTITLE5=My Oh My
TTITLE6=Mercedes Blues
TTITLE7=Hole In My Pocket
TTITLE8=Crying In The Rain
TTITLE9=Knife Eyes
EXTD=
EXTT0=
EXTT1=
EXTT2=
EXTT3=
EXTT4=
EXTT5=
EXTT6=
EXTT7=
EXTT8=
EXTT9=
PLAYORDER=
